<svg xmlns="http://www.w3.org/2000/svg" viewBox="0 0 512 512" width="512" height="512">
<defs><linearGradient id="mm-silver-i" x1="424" y1="0" x2="934" y2="0" gradientUnits="userSpaceOnUse"><stop offset="0" stop-color="#9C9C9C"/><stop offset="0.35" stop-color="#F4F4F4"/><stop offset="0.8" stop-color="#FFFFFF"/><stop offset="1" stop-color="#B8B8B8"/></linearGradient></defs>
<rect width="512" height="512" rx="104" fill="#08090A"/>
<g transform="translate(6.00 130.00) scale(0.5)">
<path d="M 64 150 C 112 161 176 166 240 157 C 310 147 374 103 452 100 C 534 97 606 124 654 162 C 598 138 532 120 458 120 C 386 121 328 156 258 173 C 194 187 128 185 94 173 Z" fill="#F2C12E"/>
<path d="M 80 160 C 95 172 105 189 108 210 C 97 193 85 179 64 161 Z" fill="#F2C12E"/>
<path d="M 420 176 C 556 160 776 162 938 211 C 774 184 562 188 420 182 Z" fill="url(#mm-silver-i)"/>
</g>
<g transform="translate(104.24 329.00) scale(0.9710)">
<path d="M38.80 0L1.81 0L1.81-10.01L10.31-11.57L10.31-59.47L1.81-61.04L1.81-71.09L40.72-71.09L60.66-24.27L61-24.27L80.37-71.09L118.83-71.09L118.83-61.04L110.28-59.47L110.28-11.57L118.83-10.01L118.83 0L81.90 0L81.90-10.01L90.79-11.57L90.79-20.85L91.25-54.30L90.91-54.35L67.57 0L51.94 0L28.26-53.71L27.87-53.66L29.23-23.19L29.23-11.57L38.80-10.01L38.80 0M148.51 1.03Q140.24 1.03 134.18-1.51Q128.12-4.05 124.81-8.59Q121.49-13.13 121.49-19.14Q121.49-24.46 124.61-28.32Q127.72-32.18 134.18-36.33Q134.58-36.57 134.97-36.84Q135.37-37.11 135.77-37.35Q132.26-41.65 130.53-45.31Q128.80-48.97 128.80-52.73Q128.80-58.45 131.75-62.82Q134.69-67.19 140.02-69.65Q145.34-72.12 152.36-72.12Q158.37-72.12 162.96-69.80Q167.54-67.48 170.12-63.57Q172.70-59.67 172.70-54.83Q172.70-50.05 170.06-45.80Q167.43-41.55 163.24-39.01L158.54-36.23L171.90-23.14Q173.72-25.93 174.76-29.05Q175.81-32.18 175.81-35.69L189.63-35.69Q189.63-28.76 187.88-22.97Q186.12-17.19 182.33-12.74L194.90-0.24L194.79 0L173.09 0L169.02-3.96Q164.03-1.42 159.16-0.20Q154.29 1.03 148.51 1.03M149.93-12.01Q152.25-12.01 154.66-12.35Q157.06-12.70 159.39-13.43L144.49-27.78L144.15-27.64Q142.73-25.88 142.05-24.17Q141.38-22.46 141.38-20.31Q141.38-16.75 143.92-14.38Q146.47-12.01 149.93-12.01M149.93-45.07L152.93-46.63Q156.10-48.34 157.18-50Q158.25-51.66 158.25-53.56Q158.25-55.71 156.58-57.37Q154.91-59.03 152.25-59.03Q149.13-59.03 147.46-57.30Q145.79-55.57 145.79-52.88Q145.79-51.07 146.81-49.22Q147.83-47.36 149.93-45.07M230.75 0L193.77 0L193.77-10.01L202.26-11.57L202.26-59.47L193.77-61.04L193.77-71.09L232.68-71.09L252.62-24.27L252.96-24.27L272.33-71.09L310.79-71.09L310.79-61.04L302.23-59.47L302.23-11.57L310.79-10.01L310.79 0L273.86 0L273.86-10.01L282.75-11.57L282.75-20.85L283.20-54.30L282.86-54.35L259.53 0L243.89 0L220.22-53.71L219.82-53.66L221.18-23.19L221.18-11.57L230.75-10.01" fill="#F2C12E"/>
</g>
</svg>
